<svg width="108" height="21" viewBox="0 0 108 21" fill="none" xmlns="http://www.w3.org/2000/svg">
<path d="M4.04 17.936C4.04 17.768 4.04 17.624 4.04 17.456V13.16L4.064 12.896C4.592 12.896 5.024 12.944 5.336 13.616L7.592 18.512C7.736 18.848 7.784 19.208 7.784 19.52C7.784 19.688 7.784 19.832 7.76 20H12.56C12.344 19.64 12.104 19.304 11.888 18.944C10.52 16.712 9.32 14.456 8.048 12.2L7.952 12.056L10.448 8.096C10.712 7.64 11.024 7.232 11.384 6.824H7.328C7.232 8.504 5.984 11.24 4.208 11.696L4.232 11.552V0.8C2.696 1.4 1.712 1.592 0.128 1.592C0.392 2.456 0.536 3.344 0.536 4.208V17.456C0.536 18.344 0.512 19.208 0.08 20H4.472C4.088 19.376 4.04 18.656 4.04 17.936ZM19.5266 6.56C15.5906 6.56 12.4466 9.776 12.4466 13.832C12.4466 17.72 15.3506 20.264 18.9746 20.264C22.8626 20.264 26.0066 17.312 26.0066 13.28C26.0066 9.56 23.3186 6.56 19.5266 6.56ZM22.5746 15.296C22.5746 16.424 22.3586 18.536 20.3906 18.536C17.5346 18.536 15.8786 14.216 15.8786 11.432C15.8786 9.992 16.3106 8.048 18.2786 8.048C21.2786 8.048 22.5746 12.584 22.5746 15.296ZM36.6386 16.256C36.0386 17.312 35.2226 18.032 34.0946 18.032C31.8866 18.032 30.9746 15.2 30.9746 12.824C30.9746 10.472 31.8626 8.264 33.9026 8.264C35.0546 8.264 35.9666 8.96 36.6386 10.04V16.256ZM36.6386 8.408C36.0386 7.592 34.8626 6.56 33.0866 6.56C29.4866 6.56 27.5666 10.976 27.5666 14.216C27.5666 16.976 28.9346 20.264 32.3666 20.264C34.5026 20.264 35.9906 18.968 36.7826 17.648V18.464C36.7826 18.92 36.8306 19.568 36.9986 20H40.7186C40.3586 19.328 40.3346 18.584 40.3346 17.816V0.8C38.8226 1.328 37.8626 1.616 36.2306 1.616C36.4706 2.48 36.6386 3.392 36.6386 4.256V8.408ZM45.6849 16.28C45.6849 15.176 46.5249 13.904 48.4449 13.28L49.3569 12.968V17.576C49.1409 17.888 48.6129 18.44 47.7729 18.44C46.6929 18.44 45.6849 17.528 45.6849 16.28ZM49.3329 10.568C49.3329 10.976 49.2129 11.696 47.9649 12.176L45.4689 13.136C43.1889 14.024 42.2769 15.32 42.2769 16.928C42.2769 18.608 43.2369 20.288 45.6129 20.288C47.0049 20.288 48.4449 19.664 49.3809 18.536L49.4049 19.04C49.4289 19.376 49.4769 19.712 49.6449 20H53.3889C53.0049 19.304 52.9809 18.512 52.9809 17.744V10.232C52.9809 8.024 51.3249 6.56 47.8929 6.56C46.5729 6.56 45.3489 6.776 44.0769 7.088C43.9089 7.808 43.7169 8.504 43.5489 9.224C44.5569 8.744 45.6849 8.336 46.7649 8.336C48.7569 8.336 49.3329 9.704 49.3329 10.568ZM62.8794 20H67.3674C67.0794 19.424 67.0074 18.776 67.0074 18.128C67.0074 17.912 67.0074 17.696 67.0074 17.504V10.208C67.0074 8.288 66.1674 6.56 63.2394 6.56C62.1354 6.56 60.5034 7.16 59.5194 8.552V0.8C58.0314 1.328 57.1194 1.616 55.5114 1.616C55.7514 2.48 55.8234 3.656 55.8234 4.28V17.456C55.8234 17.576 55.8234 17.696 55.8234 17.816C55.8234 18.56 55.7994 19.328 55.4394 20H59.9754C59.5434 19.208 59.5194 18.344 59.5194 17.456V10.688C59.6634 9.632 60.7914 8.552 61.8714 8.552C62.6874 8.552 63.3114 9.176 63.3114 10.184V17.552C63.3114 18.32 63.2874 19.184 62.8794 20ZM72.9841 12.416V12.224C72.9841 12.032 72.9841 11.672 72.9841 11.456C72.9841 9.728 73.2721 7.904 75.0481 7.904C76.9921 7.904 77.0881 9.992 77.0881 11.576V12.416H72.9841ZM80.1841 13.808C80.1841 10.712 79.5841 6.56 75.4081 6.56C70.4641 6.56 69.1681 10.664 69.1681 13.616C69.1681 16.976 70.8481 20.264 76.6321 20.264C77.2081 20.264 77.7601 20.144 78.2881 19.928L79.3441 17.624C78.5761 17.888 77.6881 18.056 76.8961 18.056C74.7121 18.056 73.0081 16.712 73.0081 14.456V13.808H80.1841ZM84.8021 16.28C84.8021 15.176 85.6421 13.904 87.5621 13.28L88.4741 12.968V17.576C88.2581 17.888 87.7301 18.44 86.8901 18.44C85.8101 18.44 84.8021 17.528 84.8021 16.28ZM88.4501 10.568C88.4501 10.976 88.3301 11.696 87.0821 12.176L84.5861 13.136C82.3061 14.024 81.3941 15.32 81.3941 16.928C81.3941 18.608 82.3541 20.288 84.7301 20.288C86.1221 20.288 87.5621 19.664 88.4981 18.536L88.5221 19.04C88.5461 19.376 88.5941 19.712 88.7621 20H92.5061C92.1221 19.304 92.0981 18.512 92.0981 17.744V10.232C92.0981 8.024 90.4421 6.56 87.0101 6.56C85.6901 6.56 84.4661 6.776 83.1941 7.088C83.0261 7.808 82.8341 8.504 82.6661 9.224C83.6741 8.744 84.8021 8.336 85.8821 8.336C87.8741 8.336 88.4501 9.704 88.4501 10.568ZM103.389 16.256C102.789 17.312 101.973 18.032 100.845 18.032C98.6366 18.032 97.7246 15.2 97.7246 12.824C97.7246 10.472 98.6126 8.264 100.653 8.264C101.805 8.264 102.717 8.96 103.389 10.04V16.256ZM103.389 8.408C102.789 7.592 101.613 6.56 99.8366 6.56C96.2366 6.56 94.3166 10.976 94.3166 14.216C94.3166 16.976 95.6846 20.264 99.1166 20.264C101.253 20.264 102.741 18.968 103.533 17.648V18.464C103.533 18.92 103.581 19.568 103.749 20H107.469C107.109 19.328 107.085 18.584 107.085 17.816V0.8C105.573 1.328 104.613 1.616 102.981 1.616C103.221 2.48 103.389 3.392 103.389 4.256V8.408Z" fill="currentColor"/>
</svg>
