<?xml version="1.0" standalone="no"?>
<!DOCTYPE svg PUBLIC "-//W3C//DTD SVG 20010904//EN"
 "http://www.w3.org/TR/2001/REC-SVG-20010904/DTD/svg10.dtd">
<svg version="1.0" xmlns="http://www.w3.org/2000/svg"
 width="647.000000pt" height="610.000000pt" viewBox="0 0 647.000000 610.000000"
 preserveAspectRatio="xMidYMid meet">
<metadata>
Created by potrace 1.16, written by Peter Selinger 2001-2019
</metadata>
<g transform="translate(0.000000,610.000000) scale(0.100000,-0.100000)"
fill="#000000" stroke="none">
<path d="M2412 5391 c-124 -31 -216 -84 -312 -181 -69 -68 -94 -102 -127 -170
-23 -47 -48 -114 -55 -149 -14 -69 -14 -70 -103 -90 -91 -21 -193 -79 -265
-150 -120 -120 -170 -243 -170 -415 l0 -101 -78 -40 c-58 -29 -100 -61 -168
-130 -76 -76 -98 -105 -138 -185 -56 -113 -76 -201 -76 -333 0 -156 41 -297
120 -411 l31 -46 -29 -42 c-40 -59 -66 -112 -92 -188 -30 -89 -38 -284 -16
-388 38 -182 155 -350 317 -458 l66 -44 7 -78 c8 -98 28 -168 73 -254 90 -172
288 -313 470 -334 75 -8 93 -13 93 -26 0 -28 97 -163 157 -218 82 -74 216
-144 323 -166 89 -19 237 -14 318 11 46 14 71 14 200 4 395 -31 814 51 1177
231 797 393 1285 1180 1285 2071 0 1054 -710 1968 -1731 2228 -225 58 -395 75
-644 66 -237 -9 -282 -9 -440 -1 -98 5 -133 2 -193 -13z m285 -266 c123 -37
236 -150 273 -274 20 -65 20 -90 18 -1776 l-3 -1710 -33 -70 c-78 -165 -231
-255 -410 -242 -97 7 -185 48 -257 121 -30 30 -55 58 -55 63 0 4 28 23 63 42
80 44 202 167 245 248 56 105 73 169 79 283 10 206 -44 347 -186 491 -71 71
-101 94 -171 127 -84 40 -206 72 -275 72 -114 0 -183 -113 -125 -207 25 -42
49 -54 130 -64 192 -24 322 -141 360 -325 14 -64 1 -143 -34 -220 -69 -151
-249 -246 -408 -214 -213 42 -336 214 -321 450 5 82 5 87 -22 118 -15 18 -59
47 -101 67 -194 89 -310 298 -276 497 11 65 63 191 83 204 5 2 30 -6 56 -20
80 -40 183 -67 283 -73 133 -8 235 14 369 79 91 43 117 62 191 137 72 71 95
102 133 181 57 115 76 189 79 300 2 69 -1 90 -16 113 -56 83 -194 72 -232 -18
-8 -19 -14 -54 -14 -79 0 -145 -113 -321 -252 -392 -288 -147 -625 26 -681
350 -39 229 128 466 368 521 84 20 120 44 135 91 16 47 8 93 -26 143 -24 37
-26 47 -22 110 13 184 167 314 351 297 212 -20 342 -227 268 -431 -26 -73 -27
-111 -1 -152 24 -40 67 -63 119 -63 94 0 159 116 168 300 6 116 -11 200 -63
302 -48 95 -153 201 -246 249 -38 18 -68 39 -68 45 0 6 9 36 19 67 45 129 140
220 276 263 55 18 171 17 232 -1z m680 0 c666 -87 1236 -484 1546 -1076 230
-439 291 -951 171 -1434 -189 -759 -802 -1345 -1566 -1500 -113 -23 -366 -50
-376 -40 -2 2 14 41 36 87 22 45 47 114 55 151 9 38 17 70 19 71 2 2 190 110
417 242 l415 238 91 1 c83 0 95 3 133 28 85 56 124 166 92 262 -28 86 -113
145 -210 145 -99 0 -174 -53 -209 -146 l-19 -49 -348 -202 c-192 -111 -352
-202 -356 -203 -5 0 -8 118 -8 263 l0 262 278 159 c152 88 400 231 551 318
l274 159 46 -10 c93 -20 189 23 236 104 24 41 27 53 24 124 -5 97 -35 147
-112 186 -122 60 -270 1 -312 -125 l-15 -46 -480 -277 c-263 -152 -481 -277
-484 -277 -4 0 -6 134 -6 299 0 227 3 301 13 309 6 5 274 161 595 346 l582
336 48 -11 c100 -23 222 45 250 139 36 119 -8 226 -113 278 -47 23 -64 26
-111 21 -97 -10 -168 -66 -195 -154 -13 -39 -20 -44 -244 -173 -126 -73 -266
-154 -310 -180 -195 -114 -485 -280 -499 -286 -15 -6 -16 20 -14 271 l3 277
161 93 c160 94 161 94 203 83 63 -16 137 3 191 49 151 130 76 369 -122 390
-46 5 -65 1 -111 -20 -61 -28 -112 -87 -122 -141 -6 -27 -19 -38 -93 -81 -48
-28 -93 -51 -99 -53 -10 -3 -13 47 -13 225 0 125 -5 256 -10 291 -12 74 -50
172 -91 237 -16 25 -29 48 -29 50 0 10 134 4 247 -10z"/>
</g>
</svg>
