<svg width="67" height="67" viewBox="0 0 67 67" fill="none" xmlns="http://www.w3.org/2000/svg">
<path d="M33.5 6.7C18.6997 6.7 6.7 18.6997 6.7 33.5C6.7 48.303 18.6997 60.3 33.5 60.3C48.303 60.3 60.3 48.303 60.3 33.5C60.3 18.6997 48.303 6.7 33.5 6.7ZM33.5 55.8331C21.1666 55.8331 11.1669 45.8354 11.1669 33.5C11.1669 21.166 21.1666 11.1669 33.5 11.1669C45.836 11.1669 55.8338 21.166 55.8338 33.5C55.8338 45.8354 45.836 55.8331 33.5 55.8331Z" fill="white"/>
<path d="M54.9701 39.5916C50.0704 42.7882 44.2408 44.6669 37.9669 44.6669H29.0331C24.6011 44.6669 20.5623 46.3117 17.4388 48.9958L17.4361 49.0085C18.4853 50.0946 19.6411 51.0761 20.8906 51.9324L20.8933 51.9317C23.1532 50.187 25.9665 49.1331 29.0324 49.1331H37.9656C42.8579 49.1331 47.5144 48.1261 51.7602 46.3312L51.7984 46.2963C53.2054 44.289 54.2888 42.0391 54.9768 39.6204L54.9701 39.5916Z" fill="white"/>
<path d="M12.521 25.9035C17.562 23.6182 23.1478 22.3318 29.0331 22.3318H37.9662C42.1778 22.3318 45.6933 19.3938 46.6347 15.4656L46.6106 15.4241C45.3175 14.4854 43.9212 13.6814 42.4411 13.0335L42.4331 13.0369V13.3933C42.4331 15.8582 40.4285 17.8642 37.9662 17.8642H29.0331C24.4248 17.8642 19.9908 18.5999 15.8073 19.9084L15.7577 19.9412C14.399 21.7167 13.2968 23.6992 12.5163 25.8379L12.521 25.9035Z" fill="white"/>
<path d="M37.9669 26.798H29.0331C22.5689 26.798 16.5028 28.5319 11.2647 31.5503L11.256 31.559C11.2011 32.1995 11.1669 32.8454 11.1669 33.5C11.1669 34.5834 11.248 35.6473 11.3974 36.6892L11.4262 36.726C16.4451 33.2876 22.506 31.2649 29.0338 31.2649H37.9669C44.3547 31.2649 49.9639 27.8887 53.1223 22.8296C52.319 21.3563 51.3508 19.9854 50.25 18.7365H50.2259C48.1583 23.4694 43.4542 26.798 37.9669 26.798Z" fill="white"/>
<path d="M29.0331 40.2H37.9662C44.8411 40.2 51.0848 37.5897 55.8237 33.3305L55.8277 33.3198C55.8123 31.3975 55.5557 29.5349 55.0841 27.7574L55.0566 27.7467C50.9629 32.6223 44.8317 35.7304 37.9662 35.7304H29.0331C22.8416 35.7304 17.1574 37.8503 12.6235 41.3792L12.6148 41.414C13.1548 42.8391 13.8382 44.1932 14.6449 45.4622L14.663 45.4602C18.5449 42.1825 23.5545 40.2 29.0331 40.2Z" fill="white"/>
</svg>
