<svg width="220" height="67" viewBox="0 0 220 67" fill="none" xmlns="http://www.w3.org/2000/svg">
<g clip-path="url(#clip0_1_26)">
<path d="M33.5 6.7C18.6997 6.7 6.7 18.6997 6.7 33.5C6.7 48.303 18.6997 60.3 33.5 60.3C48.303 60.3 60.3 48.303 60.3 33.5C60.3 18.6997 48.303 6.7 33.5 6.7ZM33.5 55.8331C21.1666 55.8331 11.1669 45.8354 11.1669 33.5C11.1669 21.166 21.1666 11.1669 33.5 11.1669C45.836 11.1669 55.8338 21.166 55.8338 33.5C55.8338 45.8354 45.836 55.8331 33.5 55.8331Z" fill="#353535"/>
<path d="M54.9701 39.5916C50.0704 42.7882 44.2408 44.6669 37.9669 44.6669H29.0331C24.6011 44.6669 20.5623 46.3117 17.4388 48.9958L17.4361 49.0085C18.4853 50.0946 19.6411 51.0761 20.8906 51.9324L20.8933 51.9317C23.1532 50.187 25.9665 49.1331 29.0324 49.1331H37.9656C42.8579 49.1331 47.5144 48.1261 51.7602 46.3312L51.7984 46.2963C53.2054 44.289 54.2888 42.0391 54.9768 39.6204L54.9701 39.5916Z" fill="#8382C0"/>
<path d="M12.521 25.9035C17.562 23.6182 23.1478 22.3318 29.0331 22.3318H37.9662C42.1778 22.3318 45.6933 19.3938 46.6347 15.4656L46.6106 15.4241C45.3175 14.4854 43.9212 13.6814 42.4411 13.0335L42.4331 13.0369V13.3933C42.4331 15.8582 40.4285 17.8642 37.9662 17.8642H29.0331C24.4248 17.8642 19.9908 18.5999 15.8073 19.9084L15.7577 19.9412C14.399 21.7167 13.2968 23.6992 12.5163 25.8379L12.521 25.9035Z" fill="#8382C0"/>
<path d="M37.9669 26.798H29.0331C22.5689 26.798 16.5028 28.5319 11.2647 31.5503L11.256 31.559C11.2011 32.1995 11.1669 32.8454 11.1669 33.5C11.1669 34.5834 11.248 35.6473 11.3974 36.6892L11.4262 36.726C16.4451 33.2876 22.506 31.2649 29.0338 31.2649H37.9669C44.3547 31.2649 49.9639 27.8887 53.1223 22.8296C52.319 21.3563 51.3508 19.9854 50.25 18.7365H50.2259C48.1583 23.4694 43.4542 26.798 37.9669 26.798Z" fill="#8382C0"/>
<path d="M29.0331 40.2H37.9662C44.8411 40.2 51.0848 37.5897 55.8237 33.3305L55.8277 33.3198C55.8123 31.3975 55.5557 29.5349 55.0841 27.7574L55.0566 27.7467C50.9629 32.6223 44.8317 35.7304 37.9662 35.7304H29.0331C22.8416 35.7304 17.1574 37.8503 12.6235 41.3792L12.6148 41.414C13.1548 42.8391 13.8382 44.1932 14.6449 45.4622L14.663 45.4602C18.5449 42.1825 23.5545 40.2 29.0331 40.2Z" fill="#8382C0"/>
<path d="M81.556 15.752C83.932 15.752 86.002 16.04 87.766 16.616C89.566 17.192 90.952 17.984 91.924 18.992C92.896 19.964 93.598 21.026 94.03 22.178C94.498 23.294 94.732 24.518 94.732 25.85C94.732 29.342 93.526 32.132 91.114 34.22C88.702 36.308 85.282 37.352 80.854 37.352H77.344V45.02C77.344 47.072 77.47 48.494 77.722 49.286C78.01 50.078 78.532 50.6 79.288 50.852V51.5H71.35V50.852C72.106 50.6 72.61 50.078 72.862 49.286C73.15 48.494 73.294 47.072 73.294 45.02V22.232C73.294 20.18 73.15 18.758 72.862 17.966C72.61 17.174 72.106 16.652 71.35 16.4V15.752C77.542 15.752 80.944 15.752 81.556 15.752ZM80.746 36.596C83.842 36.596 86.218 35.768 87.874 34.112C89.566 32.42 90.412 30.044 90.412 26.984C90.412 25.58 90.232 24.266 89.872 23.042C89.512 21.818 88.936 20.702 88.144 19.694C87.388 18.686 86.326 17.894 84.958 17.318C83.59 16.742 81.988 16.454 80.152 16.454C78.424 16.454 77.488 16.454 77.344 16.454V36.596H80.746ZM118.908 45.182C118.908 47.198 119.052 48.62 119.34 49.448C119.628 50.24 120.168 50.744 120.96 50.96V51.392H113.346V50.852C114.102 50.672 114.624 50.186 114.912 49.394C115.2 48.602 115.344 47.198 115.344 45.182V36.11C115.344 33.482 114.786 31.502 113.67 30.17C112.554 28.802 110.916 28.118 108.756 28.118C106.848 28.118 104.652 29.018 102.168 30.818V45.992C102.168 47.36 102.222 48.35 102.33 48.962C102.438 49.574 102.6 50.006 102.816 50.258C103.068 50.474 103.5 50.708 104.112 50.96V51.392H96.444V50.852C97.236 50.672 97.776 50.276 98.064 49.664C98.352 49.052 98.496 47.81 98.496 45.938C98.496 27.722 98.496 18.092 98.496 17.048L96.552 16.454V15.644L102.168 17.21V30.17C105.624 27.866 108.666 26.714 111.294 26.714C113.742 26.714 115.614 27.434 116.91 28.874C118.242 30.314 118.908 32.402 118.908 35.138V45.182ZM142.681 45.182C142.681 47.162 142.807 48.548 143.059 49.34C143.347 50.132 143.887 50.636 144.679 50.852L144.625 51.392L143.977 51.284C143.293 51.284 142.771 51.284 142.411 51.284C142.051 51.248 141.619 51.194 141.115 51.122C140.647 51.014 140.287 50.87 140.035 50.69C139.783 50.51 139.567 50.24 139.387 49.88C139.207 49.52 139.117 49.07 139.117 48.53V47.396C139.045 47.504 138.937 47.648 138.793 47.828C138.649 48.008 138.307 48.332 137.767 48.8C137.263 49.232 136.705 49.628 136.093 49.988C135.481 50.348 134.653 50.672 133.609 50.96C132.601 51.248 131.539 51.392 130.423 51.392C128.515 51.392 126.823 50.744 125.347 49.448C123.907 48.116 123.187 46.424 123.187 44.372C123.187 42.86 123.583 41.51 124.375 40.322C125.203 39.098 126.211 38.144 127.399 37.46C128.623 36.74 129.991 36.146 131.503 35.678C133.015 35.174 134.401 34.832 135.661 34.652C136.921 34.472 138.073 34.382 139.117 34.382C139.117 33.626 139.027 32.888 138.847 32.168C138.703 31.448 138.433 30.71 138.037 29.954C137.641 29.162 137.029 28.532 136.201 28.064C135.409 27.596 134.419 27.362 133.231 27.362C132.403 27.362 131.629 27.578 130.909 28.01C130.225 28.406 129.685 28.91 129.289 29.522C128.929 30.098 128.605 30.674 128.317 31.25C128.065 31.826 127.903 32.33 127.831 32.762L127.723 33.356H124.537C124.537 32.816 124.717 32.186 125.077 31.466C125.437 30.746 125.941 30.026 126.589 29.306C127.273 28.586 128.209 27.974 129.397 27.47C130.585 26.966 131.863 26.714 133.231 26.714C136.111 26.714 138.397 27.47 140.089 28.982C141.817 30.494 142.681 32.636 142.681 35.408V45.182ZM139.117 46.586V35.03C137.893 35.03 136.633 35.192 135.337 35.516C134.041 35.84 132.745 36.326 131.449 36.974C130.189 37.622 129.145 38.576 128.317 39.836C127.525 41.06 127.129 42.482 127.129 44.102C127.129 45.398 127.525 46.55 128.317 47.558C129.109 48.566 130.081 49.25 131.233 49.61C132.421 49.97 133.735 49.916 135.175 49.448C136.615 48.944 137.929 47.99 139.117 46.586ZM152.424 45.992C152.424 47.36 152.478 48.35 152.586 48.962C152.694 49.574 152.856 50.006 153.072 50.258C153.324 50.474 153.756 50.708 154.368 50.96V51.392H146.7V50.852C147.492 50.672 148.032 50.276 148.32 49.664C148.608 49.052 148.752 47.81 148.752 45.938C148.752 27.722 148.752 18.092 148.752 17.048L146.808 16.454V15.644L152.424 17.21V45.992ZM162.232 45.992C162.232 47.36 162.286 48.35 162.394 48.962C162.502 49.574 162.664 50.006 162.88 50.258C163.132 50.474 163.564 50.708 164.176 50.96V51.392H156.508V50.852C157.3 50.672 157.84 50.276 158.128 49.664C158.416 49.052 158.56 47.81 158.56 45.938C158.56 27.722 158.56 18.092 158.56 17.048L156.616 16.454V15.644L162.232 17.21V45.992ZM179.277 26.714C180.897 26.714 182.445 26.966 183.921 27.47C185.397 27.974 186.729 28.712 187.917 29.684C189.141 30.656 190.113 31.952 190.833 33.572C191.553 35.156 191.913 36.974 191.913 39.026C191.913 41.546 191.265 43.796 189.969 45.776C188.709 47.756 187.125 49.25 185.217 50.258C183.345 51.266 181.365 51.77 179.277 51.77C177.693 51.77 176.163 51.518 174.687 51.014C173.211 50.51 171.861 49.79 170.637 48.854C169.413 47.882 168.423 46.586 167.667 44.966C166.947 43.346 166.587 41.528 166.587 39.512C166.587 36.956 167.217 34.688 168.477 32.708C169.737 30.692 171.321 29.198 173.229 28.226C175.137 27.218 177.153 26.714 179.277 26.714ZM180.735 50.96C182.103 50.96 183.291 50.69 184.299 50.15C185.343 49.61 186.153 48.89 186.729 47.99C187.305 47.09 187.719 46.136 187.971 45.128C188.259 44.084 188.403 43.004 188.403 41.888C188.403 39.836 187.989 37.73 187.161 35.57C186.333 33.374 185.073 31.466 183.381 29.846C181.725 28.226 179.889 27.416 177.873 27.416H177.441C175.209 27.524 173.427 28.406 172.095 30.062C170.799 31.718 170.151 33.932 170.151 36.704C170.151 38.216 170.385 39.782 170.853 41.402C171.321 43.022 171.987 44.552 172.851 45.992C173.715 47.432 174.831 48.62 176.199 49.556C177.603 50.492 179.115 50.96 180.735 50.96ZM216.838 45.182C216.838 47.198 216.982 48.62 217.27 49.448C217.558 50.24 218.098 50.744 218.89 50.96V51.392H211.276V50.852C212.032 50.672 212.554 50.186 212.842 49.394C213.13 48.602 213.274 47.198 213.274 45.182V36.11C213.274 33.482 212.716 31.502 211.6 30.17C210.484 28.802 208.846 28.118 206.686 28.118C204.778 28.118 202.582 29.018 200.098 30.818V45.992C200.098 47.36 200.152 48.35 200.26 48.962C200.368 49.574 200.53 50.006 200.746 50.258C200.998 50.474 201.43 50.708 202.042 50.96V51.392H194.374V50.852C195.166 50.672 195.706 50.276 195.994 49.664C196.282 49.052 196.426 47.81 196.426 45.938C196.426 35.138 196.426 29.198 196.426 28.118L194.482 27.524V26.714L200.098 28.28V30.17C203.554 27.866 206.596 26.714 209.224 26.714C211.672 26.714 213.544 27.434 214.84 28.874C216.172 30.314 216.838 32.402 216.838 35.138V45.182Z" fill="#485C66"/>
</g>
<defs>
<clipPath id="clip0_1_26">
<rect width="220" height="67" fill="white"/>
</clipPath>
</defs>
</svg>
