<?xml version="1.0" encoding="UTF-8"?>
<!-- Created with Inkscape (http://www.inkscape.org/) -->
<svg width="120" height="120" version="1.1" viewBox="0 0 31.75 31.75" xml:space="preserve" xmlns="http://www.w3.org/2000/svg" xmlns:xlink="http://www.w3.org/1999/xlink"><defs><linearGradient id="linearGradient52183"><stop stop-color="#eab308" offset="0"/><stop stop-color="#a855f7" offset=".56247"/><stop stop-color="#3b82f6" offset="1"/></linearGradient><linearGradient id="linearGradient1615" x1="488.33" x2="828.43" y1="-7.4948" y2="-7.4948" gradientUnits="userSpaceOnUse" xlink:href="#linearGradient52183"/><linearGradient id="linearGradient1617" x1="488.33" x2="828.43" y1="-7.4948" y2="-7.4948" gradientTransform="matrix(1.0367,0,0,1.0291,-17.93,5.1918)" gradientUnits="userSpaceOnUse" xlink:href="#linearGradient52183"/></defs><g transform="matrix(.10005 0 0 .098836 -2.6319 -5.4206)"><g transform="matrix(.93306 0 0 .93841 -429.33 222.5)" fill="url(#linearGradient1615)"><g fill="url(#linearGradient1615)"><g transform="matrix(1.0759,0,0,1.0496,-64.874,-8.7022)" fill="url(#linearGradient1615)"><path d="m709.22 35.143a8.2197 8.2197 0 0 0-5.8106 2.4082l-112.64 112.64a8.2197 8.2197 0 0 0 5.832 14.031l224.69-0.59766a8.2197 8.2197 0 0 0 5.791-14.029l-112.04-112.04a8.2197 8.2197 0 0 0-5.8125-2.4082z" color="#000000" fill="url(#linearGradient1615)" stroke-linecap="round" stroke-linejoin="round" style="-inkscape-stroke:none;paint-order:markers fill stroke"/></g><path d="m601.43-123.81a56.553 54.849 0 0 1-56.553 54.849 56.553 54.849 0 0 1-56.553-54.849 56.553 54.849 0 0 1 56.553-54.849 56.553 54.849 0 0 1 56.553 54.849z" fill="url(#linearGradient1617)" stroke-width="9.7012"/><path d="m715.47-178.56c-1.9419 5.4e-4 -3.8063 0.762-5.1934 2.1211l-37.588 38.513c-0.0229 0.022-0.0457 0.0441-0.0684 0.0664l-143.07 143.83-38.624 36.787c-1.419 1.3901-2.2217 3.2909-2.2285 5.2773l-0.37305 108.17c-0.0194 6.6409 8.0236 9.9641 12.697 5.2461l144.51-144.95 37.545-36.781c0.0229-0.02199 0.0457-0.04413 0.0684-0.06641l143.11-145.56c4.6568-4.6824 1.3402-12.658-5.2637-12.658z" color="#000000" fill="url(#linearGradient1615)" stroke-linecap="round" stroke-linejoin="round" style="-inkscape-stroke:none;paint-order:markers fill stroke"/></g></g></g></svg>
