<svg width="863" height="814" viewBox="0 0 863 814" fill="none" xmlns="http://www.w3.org/2000/svg">
<path d="M321.6 94.5334C305.067 98.6668 292.8 105.733 280 118.667C270.8 127.733 267.467 132.267 263.067 141.333C260 147.6 256.667 156.533 255.733 161.2C253.867 170.4 253.867 170.533 242 173.2C229.867 176 216.267 183.733 206.667 193.2C190.667 209.2 184 225.6 184 248.533V262L173.6 267.333C165.867 271.2 160.267 275.467 151.2 284.667C141.067 294.8 138.133 298.667 132.8 309.333C125.333 324.4 122.667 336.133 122.667 353.733C122.667 374.533 128.133 393.333 138.667 408.533L142.8 414.667L138.933 420.267C133.6 428.133 130.133 435.2 126.667 445.333C122.667 457.2 121.6 483.2 124.533 497.067C129.6 521.333 145.2 543.733 166.8 558.133L175.6 564L176.533 574.4C177.6 587.467 180.267 596.8 186.267 608.267C198.267 631.2 224.667 650 248.933 652.8C258.933 653.867 261.333 654.533 261.333 656.267C261.333 660 274.267 678 282.267 685.333C293.2 695.2 311.067 704.533 325.333 707.467C337.2 710 356.933 709.333 367.733 706C373.867 704.133 377.2 704.133 394.4 705.467C447.067 709.6 502.933 698.667 551.333 674.667C657.6 622.267 722.667 517.333 722.667 398.533C722.667 258 628 136.133 491.867 101.467C461.867 93.7334 439.2 91.4668 406 92.6668C374.4 93.8668 368.4 93.8668 347.333 92.8001C334.267 92.1334 329.6 92.5334 321.6 94.5334ZM359.6 130C376 134.933 391.067 150 396 166.533C398.667 175.2 398.667 178.533 398.4 403.333L398 631.333L393.6 640.667C383.2 662.667 362.8 674.667 338.933 672.933C326 672 314.267 666.533 304.667 656.8C300.667 652.8 297.333 649.067 297.333 648.4C297.333 647.867 301.067 645.333 305.733 642.8C316.4 636.933 332.667 620.533 338.4 609.733C345.867 595.733 348.133 587.2 348.933 572C350.267 544.533 343.067 525.733 324.133 506.533C314.667 497.067 310.667 494 301.333 489.6C290.133 484.267 273.867 480 264.667 480C249.467 480 240.267 495.067 248 507.6C251.333 513.2 254.533 514.8 265.333 516.133C290.933 519.333 308.267 534.933 313.333 559.467C315.2 568 313.467 578.533 308.8 588.8C299.6 608.933 275.6 621.6 254.4 617.333C226 611.733 209.6 588.8 211.6 557.333C212.267 546.4 212.267 545.733 208.667 541.6C206.667 539.2 200.8 535.333 195.2 532.667C169.333 520.8 153.867 492.933 158.4 466.4C159.867 457.733 166.8 440.933 169.467 439.2C170.133 438.933 173.467 440 176.933 441.867C187.6 447.2 201.333 450.8 214.667 451.6C232.4 452.667 246 449.733 263.867 441.067C276 435.333 279.467 432.8 289.333 422.8C298.933 413.333 302 409.2 307.067 398.667C314.667 383.333 317.2 373.467 317.6 358.667C317.867 349.467 317.467 346.667 315.467 343.6C308 332.533 289.6 334 284.533 346C283.467 348.533 282.667 353.2 282.667 356.533C282.667 375.867 267.6 399.333 249.067 408.8C210.667 428.4 165.733 405.333 158.267 362.133C153.067 331.6 175.333 300 207.333 292.667C218.533 290 223.333 286.8 225.333 280.533C227.467 274.267 226.4 268.133 221.867 261.467C218.667 256.533 218.4 255.2 218.933 246.8C220.667 222.267 241.2 204.933 265.733 207.2C294 209.867 311.333 237.467 301.467 264.667C298 274.4 297.867 279.467 301.333 284.933C304.533 290.267 310.267 293.333 317.2 293.333C329.733 293.333 338.4 277.867 339.6 253.333C340.4 237.867 338.133 226.667 331.2 213.067C324.8 200.4 310.8 186.267 298.4 179.867C293.333 177.467 289.333 174.667 289.333 173.867C289.333 173.067 290.533 169.067 291.867 164.933C297.867 147.733 310.533 135.6 328.667 129.867C336 127.467 351.467 127.6 359.6 130ZM450.267 130C539.067 141.6 615.067 194.533 656.4 273.467C687.067 332 695.2 400.267 679.2 464.667C654 565.867 572.267 644 470.4 664.667C455.333 667.733 421.6 671.333 420.267 670C420 669.733 422.133 664.533 425.067 658.4C428 652.4 431.333 643.2 432.4 638.267C433.6 633.2 434.667 628.933 434.933 628.8C435.2 628.533 460.267 614.133 490.533 596.533L545.867 564.8L558 564.667C569.067 564.667 570.667 564.267 575.733 560.933C587.067 553.467 592.267 538.8 588 526C584.267 514.533 572.933 506.667 560 506.667C546.8 506.667 536.8 513.733 532.133 526.133L529.6 532.667L483.2 559.6C457.6 574.4 436.267 586.533 435.733 586.667C435.067 586.667 434.667 570.933 434.667 551.6V516.667L471.733 495.467C492 483.733 525.067 464.667 545.2 453.067L581.733 431.867L587.867 433.2C600.267 435.867 613.067 430.133 619.333 419.333C622.533 413.867 622.933 412.267 622.533 402.8C621.867 389.867 617.867 383.2 607.6 378C591.333 370 571.6 377.867 566 394.667L564 400.8L500 437.733C464.933 458 435.867 474.667 435.467 474.667C434.933 474.667 434.667 456.8 434.667 434.8C434.667 404.533 435.067 394.667 436.4 393.6C437.2 392.933 472.933 372.133 515.733 347.467L593.333 302.667L599.733 304.133C613.067 307.2 629.333 298.133 633.067 285.6C637.867 269.733 632 255.467 618 248.533C611.733 245.467 609.467 245.067 603.2 245.733C590.267 247.067 580.8 254.533 577.2 266.267C575.467 271.467 574.533 272.133 544.667 289.333C527.867 299.067 509.2 309.867 503.333 313.333C477.333 328.533 438.667 350.667 436.8 351.467C434.8 352.267 434.667 348.8 434.933 315.333L435.333 278.4L456.8 266C478.133 253.467 478.267 253.467 483.867 254.933C492.267 257.067 502.133 254.533 509.333 248.4C529.467 231.067 519.467 199.2 493.067 196.4C486.933 195.733 484.4 196.267 478.267 199.067C470.133 202.8 463.333 210.667 462 217.867C461.2 221.467 459.467 222.933 449.6 228.667C443.2 232.4 437.2 235.467 436.4 235.733C435.067 236.133 434.667 229.467 434.667 205.733C434.667 189.067 434 171.6 433.333 166.933C431.733 157.067 426.667 144 421.2 135.333C419.067 132 417.333 128.933 417.333 128.667C417.333 127.333 435.2 128.133 450.267 130Z" fill="currentColor"/>
</svg>
