<svg width="46" height="46" viewBox="0 0 46 46" fill="none" xmlns="http://www.w3.org/2000/svg">
<rect width="46" height="46" rx="8" fill="#2C2C2C"/>
<path d="M19.504 25.916V33.836C19.504 34.9507 19.6213 35.7573 19.856 36.256C20.0907 36.7547 20.5013 37.092 21.088 37.268C21.6747 37.444 22.628 37.5613 23.948 37.62V38.5C22.4227 38.412 20.2667 38.368 17.48 38.368C14.9573 38.368 13.08 38.412 11.848 38.5V37.62C12.904 37.5613 13.6667 37.444 14.136 37.268C14.6347 37.092 14.972 36.7547 15.148 36.256C15.324 35.7573 15.412 34.9507 15.412 33.836V12.012C15.412 10.8973 15.324 10.0907 15.148 9.592C14.972 9.09333 14.6347 8.756 14.136 8.58C13.6667 8.404 12.904 8.28666 11.848 8.228V7.348C13.08 7.436 14.8693 7.48 17.216 7.48L21.968 7.436C22.5253 7.40667 23.156 7.392 23.86 7.392C27.292 7.392 29.9173 8.184 31.736 9.768C33.5547 11.3227 34.464 13.42 34.464 16.06C34.464 17.6733 34.0973 19.228 33.364 20.724C32.66 22.1907 31.4427 23.4227 29.712 24.42C28.0107 25.4173 25.7373 25.916 22.892 25.916H19.504ZM22.76 8.228C21.8507 8.228 21.1613 8.33067 20.692 8.536C20.252 8.74133 19.944 9.108 19.768 9.636C19.592 10.164 19.504 10.956 19.504 12.012V25.036H22.452C25.3267 25.036 27.3067 24.2733 28.392 22.748C29.5067 21.1933 30.064 19.1253 30.064 16.544C30.064 13.6987 29.492 11.6013 28.348 10.252C27.2333 8.90267 25.3707 8.228 22.76 8.228Z" fill="white"/>
</svg>
