<svg width="600" height="617" viewBox="0 0 600 617" fill="none" xmlns="http://www.w3.org/2000/svg">
<path d="M198.933 2.16851C182.4 6.30184 170.133 13.3685 157.333 26.3018C148.133 35.3685 144.8 39.9018 140.4 48.9685C137.333 55.2352 134 64.1685 133.067 68.8352C131.2 78.0352 131.2 78.1685 119.333 80.8352C107.2 83.6352 93.6 91.3685 84 100.835C68 116.835 61.3333 133.235 61.3333 156.169V169.635L50.9333 174.969C43.2 178.835 37.6 183.102 28.5333 192.302C18.4 202.435 15.4667 206.302 10.1333 216.969C2.66667 232.035 0 243.769 0 261.369C0 282.169 5.46667 300.969 16 316.169L20.1333 322.302L16.2667 327.902C10.9333 335.769 7.46667 342.835 4 352.969C0 364.835 -1.06667 390.835 1.86667 404.702C6.93333 428.969 22.5333 451.369 44.1333 465.769L52.9333 471.635L53.8667 482.035C54.9333 495.102 57.6 504.435 63.6 515.902C75.6 538.835 102 557.635 126.267 560.435C136.267 561.502 138.667 562.169 138.667 563.902C138.667 567.635 151.6 585.635 159.6 592.969C170.533 602.835 188.4 612.169 202.667 615.102C214.533 617.635 234.267 616.969 245.067 613.635C251.2 611.769 254.533 611.769 271.733 613.102C324.4 617.235 380.267 606.302 428.667 582.302C534.933 529.902 600 424.969 600 306.169C600 165.635 505.333 43.7685 369.2 9.10186C339.2 1.36852 316.533 -0.898194 283.333 0.301806C251.733 1.50181 245.733 1.50183 224.667 0.435168C211.6 -0.231498 206.933 0.168506 198.933 2.16851ZM236.933 37.6352C253.333 42.5685 268.4 57.6352 273.333 74.1685C276 82.8352 276 86.1685 275.733 310.969L275.333 538.969L270.933 548.302C260.533 570.302 240.133 582.302 216.267 580.569C203.333 579.635 191.6 574.169 182 564.435C178 560.435 174.667 556.702 174.667 556.035C174.667 555.502 178.4 552.969 183.067 550.435C193.733 544.569 210 528.169 215.733 517.369C223.2 503.369 225.467 494.835 226.267 479.635C227.6 452.169 220.4 433.369 201.467 414.169C192 404.702 188 401.635 178.667 397.235C167.467 391.902 151.2 387.635 142 387.635C126.8 387.635 117.6 402.702 125.333 415.235C128.667 420.835 131.867 422.435 142.667 423.769C168.267 426.969 185.6 442.569 190.667 467.102C192.533 475.635 190.8 486.169 186.133 496.435C176.933 516.569 152.933 529.235 131.733 524.969C103.333 519.369 86.9333 496.435 88.9333 464.969C89.6 454.035 89.6 453.369 86 449.235C84 446.835 78.1333 442.969 72.5333 440.302C46.6667 428.435 31.2 400.569 35.7333 374.035C37.2 365.369 44.1333 348.569 46.8 346.835C47.4667 346.569 50.8 347.635 54.2667 349.502C64.9333 354.835 78.6667 358.435 92 359.235C109.733 360.302 123.333 357.369 141.2 348.702C153.333 342.969 156.8 340.435 166.667 330.435C176.267 320.969 179.333 316.835 184.4 306.302C192 290.969 194.533 281.102 194.933 266.302C195.2 257.102 194.8 254.302 192.8 251.235C185.333 240.169 166.933 241.635 161.867 253.635C160.8 256.169 160 260.835 160 264.169C160 283.502 144.933 306.969 126.4 316.435C88 336.035 43.0667 312.969 35.6 269.769C30.4 239.235 52.6667 207.635 84.6667 200.302C95.8667 197.635 100.667 194.435 102.667 188.169C104.8 181.902 103.733 175.769 99.2 169.102C96 164.169 95.7333 162.835 96.2667 154.435C98 129.902 118.533 112.569 143.067 114.835C171.333 117.502 188.667 145.102 178.8 172.302C175.333 182.035 175.2 187.102 178.667 192.569C181.867 197.902 187.6 200.969 194.533 200.969C207.067 200.969 215.733 185.502 216.933 160.969C217.733 145.502 215.467 134.302 208.533 120.702C202.133 108.035 188.133 93.9018 175.733 87.5018C170.667 85.1018 166.667 82.3018 166.667 81.5018C166.667 80.7018 167.867 76.7018 169.2 72.5685C175.2 55.3685 187.867 43.2352 206 37.5018C213.333 35.1018 228.8 35.2352 236.933 37.6352ZM327.6 37.6352C416.4 49.2352 492.4 102.169 533.733 181.102C564.4 239.635 572.533 307.902 556.533 372.302C531.333 473.502 449.6 551.635 347.733 572.302C332.667 575.369 298.933 578.969 297.6 577.635C297.333 577.369 299.467 572.169 302.4 566.035C305.333 560.035 308.667 550.835 309.733 545.902C310.933 540.835 312 536.569 312.267 536.435C312.533 536.169 337.6 521.769 367.867 504.169L423.2 472.435L435.333 472.302C446.4 472.302 448 471.902 453.067 468.569C464.4 461.102 469.6 446.435 465.333 433.635C461.6 422.169 450.267 414.302 437.333 414.302C424.133 414.302 414.133 421.369 409.467 433.769L406.933 440.302L360.533 467.235C334.933 482.035 313.6 494.169 313.067 494.302C312.4 494.302 312 478.569 312 459.235V424.302L349.067 403.102C369.333 391.369 402.4 372.302 422.533 360.702L459.067 339.502L465.2 340.835C477.6 343.502 490.4 337.769 496.667 326.969C499.867 321.502 500.267 319.902 499.867 310.435C499.2 297.502 495.2 290.835 484.933 285.635C468.667 277.635 448.933 285.502 443.333 302.302L441.333 308.435L377.333 345.369C342.267 365.635 313.2 382.302 312.8 382.302C312.267 382.302 312 364.435 312 342.435C312 312.169 312.4 302.302 313.733 301.235C314.533 300.569 350.267 279.769 393.067 255.102L470.667 210.302L477.067 211.769C490.4 214.835 506.667 205.769 510.4 193.235C515.2 177.369 509.333 163.102 495.333 156.169C489.067 153.102 486.8 152.702 480.533 153.369C467.6 154.702 458.133 162.168 454.533 173.902C452.8 179.102 451.867 179.769 422 196.969C405.2 206.702 386.533 217.502 380.667 220.969C354.667 236.169 316 258.302 314.133 259.102C312.133 259.902 312 256.435 312.267 222.969L312.667 186.035L334.133 173.635C355.467 161.102 355.6 161.102 361.2 162.569C369.6 164.702 379.467 162.169 386.667 156.035C406.8 138.702 396.8 106.835 370.4 104.035C364.267 103.368 361.733 103.902 355.6 106.702C347.467 110.435 340.667 118.302 339.333 125.502C338.533 129.102 336.8 130.569 326.933 136.302C320.533 140.035 314.533 143.102 313.733 143.369C312.4 143.769 312 137.102 312 113.369C312 96.7018 311.333 79.2351 310.667 74.5685C309.067 64.7018 304 51.6352 298.533 42.9685C296.4 39.6352 294.667 36.5685 294.667 36.3018C294.667 34.9685 312.533 35.7685 327.6 37.6352Z" fill="#D3A55F"/>
</svg>
